<?xml version="1.0" encoding="UTF-8"?>
<svg xmlns="http://www.w3.org/2000/svg" width="101" height="101" viewBox="0 0 101 101" fill="none"> <path d="M65.1081 40.122C65.1221 40.039 65.1291 39.954 65.1291 39.867C65.1291 33.942 61.6061 28.836 56.5511 26.5V16.578C56.5511 15.749 55.8791 15.078 55.0511 15.078H45.6621C44.8331 15.078 44.1621 15.749 44.1621 16.578V26.577C39.3891 28.891 36.0321 33.8 35.6741 39.777C34.3221 62.553 27.1741 69.76 27.1021 69.831L28.1371 70.917V72.417H72.6621C73.2821 72.417 73.8351 72.032 74.0581 71.453C74.2811 70.875 74.1211 70.216 73.6621 69.799C73.5811 69.726 65.5091 62.161 65.1081 40.122ZM47.163 18.078H53.552V25.485C52.537 25.263 51.4861 25.138 50.4051 25.138C49.2871 25.138 48.206 25.277 47.163 25.517V18.078V18.078ZM31.1041 69.418C33.6951 65.428 37.676 56.698 38.67 39.956C39.073 33.219 44.1181 28.138 50.4041 28.138C56.7551 28.138 61.9441 33.216 62.1241 39.526C62.1081 39.618 62.1011 39.712 62.1021 39.807C62.3401 56.453 66.7381 65.416 69.4911 69.417H31.1041V69.418Z" fill="#1FA4B2"/> <path d="M58.9956 73.616C58.1676 73.616 57.4956 74.288 57.4956 75.116C57.4956 78.868 54.4436 81.92 50.6926 81.92C46.9416 81.92 43.8896 78.868 43.8896 75.116C43.8896 74.288 43.2186 73.616 42.3896 73.616C41.5606 73.616 40.8896 74.288 40.8896 75.116C40.8896 80.522 45.2866 84.92 50.6926 84.92C56.0986 84.92 60.4956 80.523 60.4956 75.116C60.4956 74.288 59.8236 73.616 58.9956 73.616Z" fill="#1FA4B2"/> <path d="M20.6529 60.729C17.3539 58.293 15.4609 54.548 15.4609 50.457C15.4609 46.546 17.2169 42.908 20.2789 40.476C20.9269 39.961 21.0359 39.017 20.5199 38.369C20.0039 37.72 19.0599 37.612 18.4129 38.128C14.6309 41.133 12.4609 45.627 12.4609 50.458C12.4609 55.437 14.8569 60.181 18.8709 63.145C19.1389 63.342 19.4519 63.438 19.7609 63.438C20.2199 63.438 20.6749 63.227 20.9689 62.829C21.4599 62.16 21.3189 61.221 20.6529 60.729Z" fill="#1FA4B2"/> <path d="M5.77686 50.4561C5.77686 43.9531 8.59786 37.7751 13.5169 33.5051C14.1419 32.9621 14.2089 32.0141 13.6659 31.3891C13.1219 30.7631 12.1749 30.6961 11.5499 31.2401C5.97486 36.0801 2.77686 43.0841 2.77686 50.4571C2.77686 58.0611 6.15085 65.2161 12.0319 70.0861C12.3119 70.3171 12.6509 70.4311 12.9879 70.4311C13.4199 70.4311 13.8479 70.2451 14.1439 69.8881C14.6719 69.2491 14.5829 68.3041 13.9449 67.7761C8.75385 63.4761 5.77686 57.1641 5.77686 50.4561Z" fill="#1FA4B2"/> <path d="M81.5927 38.631C80.9447 38.114 80.0017 38.223 79.4847 38.87C78.9687 39.518 79.0767 40.462 79.7237 40.977C82.7857 43.415 84.5427 47.054 84.5427 50.96C84.5427 55.049 82.6477 58.793 79.3447 61.231C78.6777 61.723 78.5357 62.663 79.0287 63.329C79.3227 63.727 79.7767 63.938 80.2367 63.938C80.5467 63.938 80.8587 63.842 81.1267 63.645C85.1457 60.679 87.5437 55.937 87.5437 50.959C87.5427 46.135 85.3737 41.641 81.5927 38.631Z" fill="#1FA4B2"/> <path d="M88.4476 31.742C87.8206 31.198 86.8746 31.265 86.3316 31.891C85.7886 32.517 85.8556 33.464 86.4806 34.007C91.4006 38.278 94.2226 44.456 94.2226 50.958C94.2226 57.669 91.2436 63.981 86.0516 68.276C85.4126 68.804 85.3236 69.75 85.8516 70.388C86.1486 70.746 86.5776 70.932 87.0086 70.932C87.3456 70.932 87.6846 70.82 87.9636 70.588C93.8476 65.72 97.2226 58.566 97.2226 50.957C97.2236 43.588 94.0246 36.583 88.4476 31.742Z" fill="#1FA4B2"/> </svg>