<?xml version="1.0" encoding="UTF-8"?>
<svg xmlns="http://www.w3.org/2000/svg" width="101" height="101" viewBox="0 0 101 101" fill="none"> <path d="M92.4061 69.516C92.2151 64.087 90.5241 57.545 87.6441 51.096C81.3141 36.917 71.8591 28.31 65.6551 31.084L62.0491 32.693V24.139C62.0491 17.344 50.3401 12.219 34.8131 12.219C19.2861 12.219 7.57715 17.344 7.57715 24.139V39.455C7.57715 39.536 7.58815 39.614 7.60115 39.692C7.58915 39.77 7.57715 39.848 7.57715 39.929C7.57715 40.067 7.59015 40.204 7.59915 40.34C7.58815 40.412 7.57715 40.485 7.57715 40.56V55.876C7.57715 55.957 7.58815 56.035 7.60115 56.113C7.58915 56.191 7.57715 56.269 7.57715 56.35C7.57715 56.523 7.59015 56.694 7.60515 56.864C7.58815 56.953 7.57715 57.045 7.57715 57.139V72.453C7.57715 72.534 7.58815 72.612 7.60115 72.69C7.58915 72.768 7.57715 72.846 7.57715 72.927C7.57715 79.723 19.2861 84.848 34.8131 84.848C44.6541 84.848 53.6261 82.607 58.3671 79.06C62.5981 84.545 67.1501 87.776 70.9611 87.776C71.8321 87.776 72.6651 87.608 73.4451 87.259L87.8621 80.822C91.0001 79.426 92.6141 75.409 92.4061 69.516ZM34.8131 15.22C49.0961 15.22 59.0491 19.921 59.0491 24.14C59.0491 28.36 49.0951 33.062 34.8131 33.062C20.5311 33.062 10.5771 28.36 10.5771 24.14C10.5771 19.921 20.5301 15.22 34.8131 15.22ZM10.5771 39.456V29.75C15.0141 33.566 23.9821 36.062 34.8131 36.062C45.6451 36.062 54.6131 33.566 59.0491 29.75V34.033L51.2332 37.521C48.2282 38.865 46.7062 42.562 46.6502 47.626C43.0322 48.415 38.9831 48.851 34.8121 48.851C20.5291 48.851 10.5761 44.15 10.5761 39.931C10.5761 39.85 10.5651 39.772 10.5521 39.694C10.5651 39.615 10.5771 39.537 10.5771 39.456ZM10.5771 55.878V45.54C15.0141 49.355 23.9821 51.851 34.8131 51.851C38.9931 51.851 43.0902 51.45 46.7822 50.688C47.1222 54.398 48.1171 58.633 49.7671 63.106C45.3351 64.539 40.3171 65.272 34.8131 65.272C20.5301 65.272 10.5771 60.571 10.5771 56.352C10.5771 56.271 10.5661 56.193 10.5531 56.115C10.5651 56.037 10.5771 55.959 10.5771 55.878ZM34.8131 81.851C20.5301 81.851 10.5771 77.149 10.5771 72.93C10.5771 72.849 10.5661 72.771 10.5531 72.693C10.5651 72.615 10.5771 72.537 10.5771 72.456V61.961C15.0141 65.776 23.9821 68.272 34.8131 68.272C40.7051 68.272 46.0931 67.468 50.8691 65.899C51.0581 66.349 51.2542 66.8 51.4562 67.252C53.0192 70.753 54.7761 73.898 56.6241 76.632C52.4881 79.783 43.9711 81.851 34.8131 81.851ZM72.2231 84.523C68.3691 86.243 60.0191 79.071 54.1961 66.029C48.3731 52.987 48.6072 41.981 52.4552 40.261L61.7741 36.102C61.2581 37.845 61.0271 39.956 61.1131 42.394C61.3041 47.824 62.9951 54.366 65.8751 60.816C70.2941 70.713 76.2321 77.878 81.5281 80.37L72.2231 84.523ZM86.6401 78.087C82.7891 79.803 74.4371 72.635 68.6141 59.593C65.8881 53.487 64.2891 47.341 64.1111 42.288C63.9521 37.765 64.9611 34.68 66.8791 33.823C67.2581 33.654 67.6801 33.571 68.1401 33.571C72.3511 33.571 79.6571 40.559 84.9071 52.319C87.6331 58.424 89.2321 64.569 89.4101 69.622C89.5671 74.145 88.5581 77.23 86.6401 78.087Z" fill="#1FA4B2"/> </svg>