<?xml version="1.0" encoding="UTF-8"?>
<svg xmlns="http://www.w3.org/2000/svg" width="101" height="101" viewBox="0 0 101 101" fill="none"> <path d="M64.7 35.835L33.309 60.822C32.661 61.338 32.554 62.282 33.069 62.93C33.365 63.302 33.802 63.496 34.244 63.496C34.571 63.496 34.901 63.39 35.177 63.17L66.568 38.183C67.216 37.667 67.323 36.723 66.808 36.075C66.293 35.427 65.349 35.319 64.7 35.835Z" fill="#1FA4B2"/> <path d="M37.131 45.3069C38.481 46.2929 40.073 46.8099 41.714 46.8099C42.116 46.8099 42.522 46.7789 42.927 46.7159C47.173 46.0549 50.091 42.0629 49.432 37.8169C48.771 33.5699 44.777 30.6519 40.533 31.3129C36.286 31.9729 33.368 35.9649 34.029 40.2109C34.348 42.2679 35.449 44.0789 37.131 45.3069ZM40.993 34.2769C41.241 34.2379 41.488 34.2189 41.732 34.2189C44.053 34.2189 46.099 35.9139 46.467 38.2779C46.873 40.8899 45.078 43.3459 42.466 43.7519C41.198 43.9489 39.934 43.6409 38.901 42.8849C37.867 42.1299 37.189 41.0159 36.993 39.7509C36.587 37.1389 38.381 34.6829 40.993 34.2769Z" fill="#1FA4B2"/> <path d="M58.2208 52.136C53.9218 52.136 50.4238 55.633 50.4238 59.931C50.4238 64.229 53.9218 67.725 58.2208 67.725C62.5198 67.725 66.0168 64.228 66.0168 59.931C66.0178 55.633 62.5198 52.136 58.2208 52.136ZM58.2208 64.725C55.5758 64.725 53.4238 62.574 53.4238 59.931C53.4238 57.287 55.5758 55.136 58.2208 55.136C60.8658 55.136 63.0168 57.287 63.0168 59.931C63.0178 62.575 60.8658 64.725 58.2208 64.725Z" fill="#1FA4B2"/> <path d="M88.2829 41.2369C85.3099 39.7559 82.2369 38.2239 81.3989 36.2439C80.5439 34.2229 81.7199 31.0069 82.8569 27.8969C84.4009 23.6729 85.9989 19.3059 83.0999 16.4089C80.2479 13.5559 76.0179 14.5369 71.9259 15.4869C68.9959 16.1669 65.9659 16.8699 63.9059 15.9989C61.8999 15.1489 60.2599 12.5619 58.6739 10.0599C56.4269 6.51495 53.8809 2.49695 49.5209 2.49695C45.1529 2.49695 42.6559 6.60395 40.4529 10.2279C38.8899 12.7989 37.2729 15.4579 35.2679 16.3059C33.2109 17.1759 30.1459 16.4039 27.1809 15.6589C23.0579 14.6219 18.7949 13.5509 15.9389 16.4089C13.0549 19.2909 14.4749 23.6829 15.8489 27.9309C16.8539 31.0369 17.8919 34.2489 17.0309 36.2849C16.1929 38.2699 13.2549 39.7879 10.4139 41.2569C6.48188 43.2899 2.02588 45.5939 2.02588 49.9899C2.02588 54.3719 6.30888 56.7679 10.0879 58.8819C12.7949 60.3959 15.5939 61.9619 16.4379 63.9559C17.3029 66.0009 16.3969 69.1439 15.5219 72.1829C14.3149 76.3709 13.0669 80.7029 15.9389 83.5729C18.8989 86.5319 23.6439 84.0689 28.2329 81.6839C31.5679 79.9519 35.3489 77.9859 37.3149 78.8189C39.2339 79.6309 40.5199 83.5959 41.6549 87.0939C43.3109 92.2009 45.0249 97.4829 49.5219 97.4829C54.0239 97.4829 55.6809 92.1959 57.2829 87.0829C58.3829 83.5739 59.6299 79.5959 61.5469 78.7859C63.5129 77.9549 67.3369 79.9259 70.7099 81.6659C75.3479 84.0589 80.1429 86.5319 83.1009 83.5739C86.0019 80.6739 84.4129 76.3679 82.8769 72.2029C81.7479 69.1409 80.5799 65.9749 81.4329 63.9559C82.2719 61.9729 85.3349 60.3969 88.2969 58.8729C92.5819 56.6679 97.0129 54.3889 97.0129 49.9899C97.0099 45.5859 92.5729 43.3749 88.2829 41.2369ZM86.9219 56.2059C83.4849 57.9739 79.9309 59.8029 78.6679 62.7889C77.3529 65.9009 78.7299 69.6329 80.0609 73.2419C81.3259 76.6719 82.5209 79.9109 80.9779 81.4529C79.5699 82.8619 75.5919 80.8109 72.0839 79.0009C67.9319 76.8589 63.6389 74.6449 60.3769 76.0239C57.1809 77.3749 55.7759 81.8549 54.4189 86.188C53.1409 90.267 51.8189 94.4849 49.5209 94.4849C47.2039 94.4849 45.8329 90.2579 44.5069 86.1699C43.1089 81.8599 41.6639 77.4029 38.4829 76.0579C37.7769 75.7589 37.0249 75.6279 36.2379 75.6279C33.3839 75.6279 30.0739 77.3479 26.8489 79.0229C23.3889 80.8219 19.4649 82.8599 18.0589 81.4529C16.4389 79.8339 17.3929 76.5219 18.4039 73.0149C19.4239 69.4739 20.4789 65.8129 19.1999 62.7879C17.9549 59.8469 14.6999 58.0259 11.5519 56.2649C8.19588 54.3879 5.02588 52.6139 5.02588 49.9919C5.02588 47.4219 8.31188 45.7219 11.7919 43.9239C15.1059 42.2099 18.5339 40.4379 19.7939 37.4549C21.0899 34.3909 19.8769 30.6389 18.7029 27.0099C17.5569 23.4659 16.4739 20.1169 18.0599 18.5329C19.7139 16.8769 22.9859 17.6999 26.4499 18.5709C29.8939 19.4379 33.4579 20.3339 36.4369 19.0719C39.3329 17.8479 41.2059 14.7679 43.0169 11.7889C44.9829 8.55495 46.8399 5.49995 49.5209 5.49995C52.2299 5.49995 54.1289 8.49695 56.1399 11.6689C57.9729 14.5599 59.8669 17.5499 62.7379 18.7649C65.6969 20.0159 69.2089 19.2009 72.6049 18.4119C76.0499 17.6129 79.3039 16.8569 80.9799 18.5329C82.5249 20.0769 81.3179 23.3759 80.0409 26.8689C78.7049 30.5249 77.3219 34.3049 78.6379 37.4149C79.9079 40.4159 83.4859 42.1999 86.9469 43.9239C90.5799 45.7349 94.0119 47.4449 94.0119 49.9919C94.0099 52.5579 90.5669 54.3299 86.9219 56.2059Z" fill="#1FA4B2"/> </svg>