<?xml version="1.0" encoding="UTF-8"?>
<svg xmlns="http://www.w3.org/2000/svg" width="101" height="101" viewBox="0 0 101 101" fill="none"> <path d="M92.6 67.5C92.6 67.4 92.6 67.4001 92.6 67.3001V30C92.6 21 85.3 13.8 76.4 13.8H63.1C62.3 13.8 61.6 14.5 61.6 15.3C61.6 16.1 62.3 16.8 63.1 16.8H76.4C83.7 16.8 89.6 22.7 89.6 30V60.9001C87.3 57.8001 83.9 55.6 80.1 54.6C75.7 53.5 71.2 54.2 67.3 56.6C63.4 58.9 60.7 62.6 59.7 67C59.5 67.8 59.4 68.7 59.3 69.5H40.7C40.5 67 39.7 64.5001 38.3 62.2001C36 58.3001 32.3 55.6 27.9 54.6C23.5 53.5 19 54.2 15.1 56.6C13.3 57.7 11.7 59.2 10.4 60.8V30C10.4 22.7 16.3 16.8 23.6 16.8H37C37.8 16.8 38.5 16.1 38.5 15.3C38.5 14.5 37.8 13.8 37 13.8H23.7C14.7 13.8 7.5 21.1 7.5 30V67.2C5.4 76.2 11 85.2 19.9 87.4C21.2 87.7 22.6 87.9 23.9 87.9C31.5 87.9 38.4 82.7 40.3 75C40.5 74.2 40.6 73.3 40.7 72.5H59.4C59.6 75 60.4 77.5 61.8 79.8C64.1 83.7 67.8 86.4 72.2 87.4C73.5 87.7 74.9 87.9 76.2 87.9C83.8 87.9 90.7 82.7 92.6 75C93.1 72.5 93.2 69.9 92.6 67.5ZM37.4 74.3001C35.6 81.7001 28.1 86.3 20.6 84.5C13.2 82.7 8.6 75.2 10.4 67.7C11.3 64.1 13.5 61.1 16.7 59.1C18.9 57.8 21.4 57.1 23.9 57.1C25 57.1 26.1 57.2 27.2 57.5C30.8 58.4 33.8 60.6 35.8 63.8C37.7 66.9 38.3 70.7001 37.4 74.3001ZM89.6 74.3001C87.8 81.7001 80.3 86.3 72.8 84.5C69.2 83.6 66.2 81.4 64.2 78.2C62.9 76 62.2 73.6 62.2 71.1V71V70.9001C62.2 69.8001 62.3 68.8 62.6 67.7C63.5 64.1 65.7 61.1 68.9 59.1C71.1 57.8 73.6 57.1 76.1 57.1C77.2 57.1 78.3 57.2 79.4 57.5C83 58.4 86 60.6 88 63.8C89.9 66.9 90.5 70.7001 89.6 74.3001Z" fill="#1FA4B2"/> </svg>