<?xml version="1.0" encoding="UTF-8"?>
<svg xmlns="http://www.w3.org/2000/svg" width="101" height="101" viewBox="0 0 101 101" fill="none"> <path d="M26.8311 41.646C26.8311 44.418 29.0861 46.674 31.8591 46.674C34.6321 46.674 36.8871 44.418 36.8871 41.646C36.8871 38.874 34.6311 36.618 31.8591 36.618C29.0871 36.618 26.8311 38.874 26.8311 41.646ZM33.9811 41.646C33.9811 42.816 33.0291 43.768 31.8591 43.768C30.6891 43.768 29.7371 42.816 29.7371 41.646C29.7371 40.476 30.6891 39.524 31.8591 39.524C33.0291 39.524 33.9811 40.476 33.9811 41.646Z" fill="#1FA4B2"/> <path d="M76.4269 26.049C75.7219 25.667 74.8399 25.924 74.4549 26.628C74.0699 27.332 74.3299 28.215 75.0339 28.6C85.0179 34.049 90.9779 42.842 90.9779 52.121C90.9779 60.671 87.5609 66.984 79.8989 72.591C79.6149 72.8 79.4159 73.105 79.3379 73.448L76.4739 86.35H71.1129L69.4059 79.775C69.3019 79.378 69.0359 79.042 68.6719 78.852C68.3079 78.662 67.8779 78.636 67.4939 78.778C62.7379 80.545 59.134 81.112 52.659 81.112C46.512 81.112 42.1179 80.68 36.5159 78.404C36.1229 78.243 35.68 78.263 35.304 78.458C34.927 78.652 34.6539 79.002 34.5559 79.414L32.9079 86.351H27.5939L24.7719 72.432C24.6959 72.058 24.4759 71.729 24.1599 71.516C12.0619 63.366 5.92895 56.334 5.92895 50.614V45.127C5.92895 42.772 7.59595 40.856 9.64395 40.856H16.0969L16.2229 40.855C16.2799 40.854 16.3319 40.851 16.3879 40.856C16.9429 40.907 17.485 40.638 17.773 40.156C19.863 36.666 22.8919 33.521 26.7749 30.809C27.1639 30.537 27.3959 30.092 27.3959 29.618V17.537C32.5789 18.078 36.2309 21.458 37.6339 24.811C37.9429 25.551 38.795 25.9 39.535 25.591C40.275 25.281 40.6249 24.43 40.3149 23.69C38.4139 19.144 33.2329 14.556 25.9429 14.556C25.1399 14.556 24.4899 15.206 24.4899 16.009V28.869C20.8219 31.532 17.8769 34.581 15.7209 37.95H9.64395C5.99295 37.95 3.02295 41.17 3.02295 45.127V50.614C3.02295 60.455 16.7819 70.039 22.0409 73.592L24.9809 88.092C25.1179 88.769 25.7129 89.256 26.4049 89.256H34.0559C34.7289 89.256 35.314 88.794 35.47 88.139L36.999 81.702C42.31 83.631 46.721 84.017 52.659 84.017C58.135 84.017 62.0239 83.695 66.9909 82.037L68.5829 88.168C68.7489 88.809 69.3269 89.256 69.9889 89.256H77.6399C78.3209 89.256 78.9109 88.782 79.0589 88.118L82.0589 74.608C90.1229 68.551 93.8849 61.392 93.8849 52.121C93.8849 41.761 87.3579 32.015 76.4269 26.049Z" fill="#1FA4B2"/> <path d="M47.6699 30.172C48.1099 30.196 48.5199 30.019 48.8099 29.699C50.7819 27.536 53.9439 26.245 57.2669 26.245C60.5629 26.245 63.6229 27.532 65.6629 29.776C65.9379 30.08 66.3299 30.252 66.7379 30.252C66.7579 30.252 66.7769 30.252 66.7969 30.251C67.2269 30.234 67.6269 30.027 67.8899 29.686C69.7079 27.326 70.6679 24.5 70.6669 21.515C70.6669 14.126 64.6549 8.11499 57.2669 8.11499C49.8789 8.11499 43.8669 14.126 43.8669 21.515C43.8669 24.46 44.8049 27.256 46.5789 29.598C46.8389 29.941 47.2389 30.152 47.6699 30.172ZM57.2669 11.02C63.0529 11.02 67.7609 15.728 67.7609 21.515C67.7619 23.303 67.3229 25.017 66.4799 26.55C63.9889 24.492 60.7239 23.339 57.2679 23.339C53.7629 23.339 50.4839 24.463 48.0129 26.469C47.1989 24.955 46.7739 23.269 46.7739 21.514C46.7729 15.728 51.4799 11.02 57.2669 11.02Z" fill="#1FA4B2"/> </svg>