<?xml version="1.0" encoding="UTF-8"?>
<svg xmlns="http://www.w3.org/2000/svg" width="101" height="101" viewBox="0 0 101 101" fill="none"> <path d="M87.25 61.525H38.475V12.751C38.475 11.922 37.804 11.251 36.975 11.251H12.75C11.921 11.251 11.25 11.922 11.25 12.751V63.025V87.251C11.25 88.08 11.921 88.751 12.75 88.751H87.25C88.078 88.751 88.75 88.08 88.75 87.251V63.025C88.75 62.196 88.078 61.525 87.25 61.525ZM35.475 14.251V61.525H14.25V51.501H21.529C22.358 51.501 23.029 50.83 23.029 50.001C23.029 49.172 22.358 48.501 21.529 48.501H14.25V38.781H27.592C28.421 38.781 29.092 38.11 29.092 37.281C29.092 36.452 28.421 35.781 27.592 35.781H14.25V26.061H21.529C22.358 26.061 23.029 25.39 23.029 24.561C23.029 23.732 22.358 23.061 21.529 23.061H14.25V14.251H35.475ZM85.75 85.751H14.25V64.525H85.75V85.751Z" fill="#1FA4B2"/> <path d="M75.1341 81.4841C78.6341 81.4841 81.4811 78.6361 81.4811 75.1361C81.4811 71.6361 78.6331 68.7891 75.1341 68.7891C71.6341 68.7891 68.7861 71.6361 68.7861 75.1361C68.7861 78.6361 71.6341 81.4841 75.1341 81.4841ZM75.1341 71.7891C76.9791 71.7891 78.4811 73.2901 78.4811 75.1361C78.4811 76.9821 76.9791 78.4841 75.1341 78.4841C73.2881 78.4841 71.7861 76.9821 71.7861 75.1361C71.7861 73.2911 73.2881 71.7891 75.1341 71.7891Z" fill="#1FA4B2"/> </svg>