<?xml version="1.0" encoding="UTF-8"?>
<svg xmlns="http://www.w3.org/2000/svg" width="101" height="101" viewBox="0 0 101 101" fill="none"> <path d="M94.8787 67.116C94.5947 66.834 94.2157 66.658 93.8097 66.681L87.3428 66.739H74.3228V60.239C74.3228 59.41 73.6508 58.739 72.8228 58.739H41.8228C40.9948 58.739 40.3228 59.41 40.3228 60.239V88.239C40.3228 89.068 40.9948 89.739 41.8228 89.739H47.9508C48.2078 92.814 50.7888 95.239 53.9298 95.239C57.0658 95.239 59.6418 92.814 59.8988 89.739H72.8228C72.9988 89.739 73.1658 89.703 73.3228 89.647C73.4798 89.703 73.6468 89.739 73.8228 89.739H78.1778C78.4348 92.814 81.0167 95.239 84.1577 95.239C87.2937 95.239 89.8698 92.814 90.1268 89.739H93.8228C94.6508 89.739 95.3228 89.068 95.3228 88.239V68.181C95.3238 67.781 95.1627 67.398 94.8787 67.116ZM43.3238 61.74H71.3237V86.74H59.3748C58.4268 84.673 56.3458 83.232 53.9308 83.232C51.5108 83.232 49.4268 84.673 48.4768 86.74H43.3238V61.74ZM53.9308 92.24C52.2738 92.24 50.9258 90.893 50.9258 89.238C50.9258 87.581 52.2738 86.233 53.9308 86.233C55.5818 86.233 56.9248 87.581 56.9248 89.238C56.9248 90.893 55.5818 92.24 53.9308 92.24ZM84.1587 92.24C82.5017 92.24 81.1528 90.893 81.1528 89.238C81.1528 89.105 81.1748 88.978 81.1918 88.85C81.2668 88.681 81.3098 88.495 81.3178 88.3C81.7148 87.104 82.8307 86.233 84.1587 86.233C85.8097 86.233 87.1528 87.581 87.1528 89.238C87.1528 90.893 85.8097 92.24 84.1587 92.24ZM92.3237 86.74H89.6027C88.6547 84.673 86.5737 83.232 84.1587 83.232C81.7387 83.232 79.6538 84.673 78.7038 86.74H74.3237V69.74H87.3568L92.3237 69.696V86.74Z" fill="#1FA4B2"/> <path d="M35.2279 47.328C39.6109 47.328 43.8199 48.284 47.7389 50.168C48.4879 50.527 49.3839 50.212 49.7409 49.466C50.0999 48.719 49.7859 47.823 49.0399 47.464C44.7109 45.383 40.0639 44.328 35.2279 44.328C17.6309 44.328 3.31494 58.643 3.31494 76.24C3.31494 77.069 3.98694 77.74 4.81494 77.74H32.8239C33.6519 77.74 34.3239 77.069 34.3239 76.24C34.3239 75.411 33.6519 74.74 32.8239 74.74H6.35294C7.13594 59.492 19.7879 47.328 35.2279 47.328Z" fill="#1FA4B2"/> <path d="M34.6938 41.492C44.8628 41.492 53.1358 33.22 53.1358 23.053C53.1358 12.886 44.8628 4.61499 34.6938 4.61499C24.5288 4.61499 16.2588 12.886 16.2588 23.053C16.2588 33.22 24.5288 41.492 34.6938 41.492ZM34.6938 7.61399C43.2088 7.61399 50.1358 14.54 50.1358 23.052C50.1358 31.565 43.2078 38.491 34.6938 38.491C26.1828 38.491 19.2588 31.565 19.2588 23.052C19.2588 14.54 26.1828 7.61399 34.6938 7.61399Z" fill="#1FA4B2"/> </svg>