<?xml version="1.0" encoding="UTF-8"?>
<svg xmlns="http://www.w3.org/2000/svg" width="101" height="101" viewBox="0 0 101 101" fill="none"> <path d="M50.089 53.8059C29.362 53.8059 12.5 70.6669 12.5 91.3929C12.5 92.2209 13.172 92.8929 14 92.8929H72.901C72.946 92.8969 72.99 92.9069 73.036 92.9069C73.082 92.9069 73.126 92.8969 73.171 92.8929H86.168C86.996 92.8929 87.668 92.2209 87.668 91.3929C87.669 70.6669 70.811 53.8059 50.089 53.8059ZM28 64.8089C31.226 62.1239 34.944 60.0149 39 58.6379V73.3929C39 74.2209 39.672 74.8929 40.5 74.8929H59.5C60.328 74.8929 61 74.2209 61 73.3929V58.5799C64.856 59.8659 68.415 61.8069 71.536 64.2819V89.8929H28V64.8089ZM58 57.7279V71.8929H42V57.7679C44.596 57.1429 47.304 56.8059 50.089 56.8059C52.811 56.8059 55.458 57.1309 58 57.7279ZM25 67.6079V89.8929H15.532C15.902 81.2799 19.436 73.4729 25 67.6079ZM74.536 89.8929V66.9679C80.46 72.8999 84.254 80.9589 84.637 89.8929H74.536Z" fill="#1FA4B2"/> <path d="M49.456 50.071C61.366 50.071 71.057 40.384 71.057 28.478C71.057 16.568 61.367 6.87695 49.456 6.87695C37.545 6.87695 27.854 16.567 27.854 28.478C27.854 40.384 37.545 50.071 49.456 50.071ZM49.456 9.87695C57.414 9.87695 64.2 14.909 66.851 21.95C63.958 20.686 58.912 18.063 55.723 16.325C55.301 16.096 54.796 16.081 54.364 16.287C54.29 16.322 46.907 19.813 42.106 21.813L41.65 22.004C38.009 23.526 35.669 24.499 31.193 24.99C32.832 16.397 40.392 9.87695 49.456 9.87695ZM30.877 28.04C36.207 27.528 38.877 26.416 42.807 24.773L43.262 24.584C47.257 22.919 52.994 20.245 54.958 19.324C57.438 20.662 65.174 24.777 67.796 25.508C67.953 26.478 68.056 27.465 68.056 28.479C68.056 38.731 59.712 47.072 49.455 47.072C39.198 47.072 30.853 38.731 30.853 28.479C30.854 28.33 30.873 28.187 30.877 28.04Z" fill="#1FA4B2"/> </svg>