<?xml version="1.0" encoding="UTF-8"?>
<svg xmlns="http://www.w3.org/2000/svg" width="101" height="101" viewBox="0 0 101 101" fill="none"> <path d="M81.0311 19.808C72.8491 11.69 62.0091 7.22498 50.4891 7.22498C50.4311 7.22498 50.3731 7.22498 50.3151 7.22498C26.4001 7.31898 7.02112 26.85 7.11312 50.765C7.15812 62.35 11.7121 73.223 19.9351 81.382C28.1181 89.501 38.9571 93.966 50.4771 93.965C50.5351 93.965 50.5941 93.965 50.6521 93.965C74.5661 93.872 93.9461 74.341 93.8531 50.426C93.8091 38.842 89.2551 27.968 81.0311 19.808ZM50.6411 90.965C39.8851 91.005 29.7041 86.849 22.0491 79.253C14.3941 71.657 10.1551 61.536 10.1131 50.753C10.0271 28.493 28.0661 10.312 50.3261 10.225C50.3811 10.225 50.4331 10.225 50.4881 10.225C61.2111 10.225 71.3021 14.381 78.9181 21.938C86.5731 29.533 90.8121 39.654 90.8541 50.438C90.9401 72.698 72.9001 90.878 50.6411 90.965Z" fill="#1FA4B2"/> <path d="M66.3191 39.333C66.6881 38.684 66.5241 37.863 65.9341 37.405C65.3441 36.947 64.5091 36.993 63.9711 37.512L51.2831 49.801C51.0581 49.781 50.8191 49.781 50.6111 49.771C46.6231 49.787 43.3911 53.044 43.4051 57.032C43.4121 58.964 44.1721 60.777 45.5441 62.138C46.9081 63.492 48.7151 64.236 50.6341 64.236C50.6441 64.236 50.6551 64.236 50.6661 64.236C52.5981 64.229 54.4121 63.469 55.7731 62.098C57.1331 60.726 57.8781 58.907 57.8711 56.976C57.8681 56.231 57.7491 55.497 57.5161 54.783L66.3191 39.333ZM54.4921 55.272C54.7411 55.828 54.8691 56.405 54.8711 56.987C54.8761 58.118 54.4391 59.182 53.6431 59.985C52.8461 60.788 51.7861 61.232 50.6541 61.236C49.5231 61.214 48.4591 60.805 47.6561 60.008C46.8531 59.212 46.4091 58.151 46.4051 57.02C46.3961 54.687 48.2881 52.781 50.6201 52.771C50.6231 52.771 50.6271 52.771 50.6301 52.771C50.9151 52.771 51.2061 52.801 51.4951 52.861C51.9791 52.959 52.4831 52.814 52.8411 52.468L58.5081 46.98L54.5561 53.916C54.3201 54.331 54.2961 54.835 54.4921 55.272Z" fill="#1FA4B2"/> <path d="M50.7511 74.6019C50.7451 74.6019 50.7391 74.6019 50.7321 74.6019C48.1291 74.6119 46.0201 76.7379 46.0291 79.3409C46.0341 80.6019 46.5291 81.7859 47.4251 82.6739C48.3161 83.5579 49.4961 84.0429 50.7501 84.0429C50.7561 84.0429 50.7621 84.0429 50.7691 84.0429C53.3721 84.0329 55.4811 81.9069 55.4721 79.3039C55.4631 76.7069 53.3471 74.6019 50.7511 74.6019ZM50.7581 81.0429C50.7561 81.0429 50.7541 81.0429 50.7511 81.0429C50.2931 81.0429 49.8631 80.8659 49.5391 80.5439C49.2131 80.2209 49.0321 79.7889 49.0301 79.3289C49.0271 78.3799 49.7951 77.6049 50.7441 77.6009C50.7461 77.6009 50.7481 77.6009 50.7511 77.6009C51.6971 77.6009 52.4681 78.3689 52.4721 79.3149C52.4771 80.2649 51.7071 81.0389 50.7581 81.0429Z" fill="#1FA4B2"/> <path d="M50.5 17.95C50.458 17.95 50.414 17.95 50.373 17.95C41.703 17.983 33.565 21.391 27.458 27.545C21.352 33.699 18.007 41.863 18.04 50.533C18.075 59.21 21.487 67.3519 27.649 73.4609C27.931 73.7389 28.31 73.896 28.705 73.896C28.722 73.896 28.738 73.8959 28.755 73.8949C29.168 73.8809 29.557 73.698 29.83 73.388L36.626 65.6869C37.174 65.0659 37.115 64.119 36.494 63.57C35.873 63.024 34.925 63.0829 34.377 63.7029L28.661 70.181C23.765 64.785 21.07 57.8649 21.041 50.5229C21.011 42.6539 24.046 35.245 29.589 29.66C35.132 24.075 42.517 20.982 50.386 20.952C50.425 20.952 50.463 20.952 50.501 20.952C66.691 20.952 79.896 34.092 79.958 50.297C79.986 57.664 77.328 64.628 72.44 70.07L66.667 64.341C66.078 63.756 65.129 63.7599 64.546 64.3489C63.962 64.9369 63.966 65.887 64.554 66.47L71.418 73.2819C71.699 73.5609 72.079 73.718 72.475 73.718C72.477 73.718 72.479 73.718 72.481 73.718C72.878 73.716 73.259 73.557 73.54 73.275C79.647 67.121 82.992 58.9569 82.959 50.2859C82.887 32.427 68.34 17.95 50.5 17.95Z" fill="#1FA4B2"/> </svg>